<svg width="38" height="41" viewBox="0 0 38 41" fill="none" xmlns="http://www.w3.org/2000/svg">
<path d="M7.42316 29.453C11.8457 31.93 16.8059 32.1975 18.7334 32.1975C22.9168 32.1975 26.0977 31.132 27.9324 29.1161C29.1626 27.7644 29.7214 26.0841 29.5491 24.2566C29.2536 21.1248 27.1374 17.3914 18.7334 17.3914C14.3565 17.3914 14.2981 16.7268 14.2668 16.3695C14.2308 15.9601 14.3324 15.8484 14.3997 15.7747C14.5483 15.613 15.4551 14.8048 18.7334 14.8048C22.4304 14.8048 30.4606 16.6853 31.684 22.4977C32.374 25.7768 31.8715 28.49 30.1901 30.5622C28.0129 33.2448 23.8371 34.7837 18.7334 34.7837C12.3025 34.7837 8.1259 32.6052 6.20862 31.3072L6.14808 31.2662C6.04563 31.1968 5.9072 31.2166 5.82888 31.3123L5.02878 32.283C4.93142 32.4011 4.95639 32.5773 5.08255 32.664L5.13631 32.7009C7.22716 34.1347 11.7738 36.5397 18.7342 36.5397C24.3701 36.5397 29.0428 34.7642 31.5549 31.6688C33.5856 29.1656 34.2075 25.9584 33.4032 22.1361C31.9579 15.2705 22.896 13.0493 18.7342 13.0493C15.0639 13.0493 13.6326 14.0141 13.106 14.5889C12.935 14.7756 12.4151 15.3442 12.5184 16.5236C12.6932 18.5094 14.2037 19.1474 18.7342 19.1474C22.6441 19.1474 27.391 20.0627 27.802 24.4217C27.9265 25.7442 27.5231 26.9592 26.6349 27.9345C25.1418 29.5745 22.41 30.4419 18.7346 30.4419C16.9452 30.4419 12.3444 30.196 8.28252 27.9214C4.0132 25.5304 1.75641 21.6243 1.75641 16.6256C1.75641 5.79248 12.1704 1.75557 18.7346 1.75557C19.0403 1.75557 26.2725 1.79494 30.8792 5.22987L30.9618 5.29168C31.0524 5.35941 31.1798 5.34375 31.2518 5.25654L32.0553 4.2816C32.1556 4.15968 32.134 3.97849 32.0079 3.88324L31.9723 3.85657C26.8957 0.0436037 19.0653 0 18.7342 0C11.491 0 0 4.51359 0 16.626C0 22.2983 2.56709 26.734 7.424 29.4539L7.42316 29.453Z" fill="#A2A2A2"/>
<path d="M37.4034 21.2934C35.5119 12.3073 24.9468 8.95871 18.7318 8.95871C14.7385 8.95871 11.8302 9.92306 10.0878 11.8255C8.83978 13.1878 8.2704 14.9362 8.44143 16.8806C8.99896 23.2373 15.5729 23.2373 18.7318 23.2373C21.7218 23.2373 23.6357 23.8381 23.7272 24.8045C23.7433 24.9785 23.7179 25.0594 23.6074 25.1804C22.9601 25.8916 21.0466 26.351 18.7318 26.351C16.5796 26.351 5.84385 25.8819 5.84385 16.6253C5.84385 7.82629 15.4324 6.01569 18.7759 6.01569C20.4273 6.01569 25.3159 6.30483 28.2734 8.40033L28.3724 8.4706C28.4533 8.52818 28.565 8.51293 28.6285 8.43631L29.5298 7.34284C29.5882 7.27172 29.5747 7.16631 29.4998 7.11254L29.3601 7.01179C26.0246 4.61445 21.1605 4.25928 18.7763 4.25928C14.9773 4.25928 4.08828 6.39246 4.08828 16.6253C4.08828 27.5537 16.2867 28.1069 18.7323 28.1069C21.6473 28.1069 23.8978 27.4711 24.9066 26.3624C25.3464 25.8794 25.5382 25.2994 25.476 24.6398C25.2783 22.5439 23.0096 21.4813 18.7323 21.4813C14.6217 21.4813 10.5759 21.1143 10.1911 16.7265C10.0645 15.2854 10.4768 14.0006 11.3832 13.0113C12.7789 11.4869 15.2516 10.7143 18.7323 10.7143C24.3965 10.7143 34.0074 13.6848 35.6855 21.6549C36.6287 26.1346 35.8265 30.1059 33.3656 33.1391C30.3651 36.8374 25.1682 38.874 18.7327 38.874C10.9941 38.874 5.93105 36.1198 3.60187 34.4781L3.53498 34.4311C3.43592 34.3613 3.29961 34.3795 3.22256 34.473L2.42203 35.4442C2.32382 35.5631 2.34753 35.7409 2.47326 35.8302L2.52067 35.8637C5.02385 37.6438 10.4586 40.6296 18.7331 40.6296C25.7079 40.6296 31.3891 38.3622 34.73 34.2453C37.5355 30.7875 38.4605 26.3082 37.4047 21.293L37.4034 21.2934Z" fill="#A2A2A2"/>
</svg>
